<svg width="23" height="23" viewBox="0 0 95 90" fill="none" xmlns="http://www.w3.org/2000/svg">
<path fill-rule="evenodd" clip-rule="evenodd" d="M0 4.5C0 8.112 0.345 9.004 1.75 9.018C2.712 9.028 5.075 10.931 7 13.246L10.5 17.456L10.819 39.73L11.138 62.003L14.741 64.752L18.344 67.5H45H71.656L75.328 64.699C77.348 63.159 79 61.322 79 60.619C79 59.915 80.124 57.125 81.498 54.419C82.872 51.714 84.504 47.925 85.125 46C85.745 44.075 86.829 41.825 87.533 41C88.238 40.175 89.337 37.537 89.976 35.138C90.738 32.276 91.801 30.603 93.069 30.272C94.714 29.841 95 28.853 95 23.584C95 17.49 94.953 17.385 91.679 16.201C89.349 15.358 78.585 15 55.613 15C33.512 15 22.159 14.638 20.684 13.885C17.541 12.281 8 2.803 8 1.284C8 0.453 6.59 0 4 0H0V4.5ZM83 25.5V28H52.139H21.277L21.755 25.5L22.233 23H52.617H83V25.5ZM78.827 38.808C79.007 40.077 78.513 42.102 77.729 43.308C76.945 44.514 75.737 47.226 75.046 49.336C74.354 51.445 72.439 54.708 70.791 56.586L67.793 60H45.019C25.055 60 22.076 59.796 20.872 58.346C18.965 56.048 18.975 39.94 20.885 37.638C22.129 36.14 25.147 35.996 50.385 36.235L78.5 36.5L78.827 38.808ZM18.07 75.265C14.944 76.853 13.94 80.735 15.319 85.902L16.413 90H21.707C25.799 90 27 89.652 27 88.465C27 87.62 27.642 85.933 28.427 84.715C30.487 81.516 29.326 77.22 25.926 75.462C22.503 73.692 21.228 73.66 18.07 75.265ZM60.725 75.752C57.913 78.859 57.062 82.364 58.606 84.476C59.373 85.525 60 87.196 60 88.191C60 89.683 60.833 89.999 64.75 89.996C69.411 89.993 69.534 89.911 71.281 85.66C72.279 83.232 72.765 80.486 72.386 79.414C70.662 74.534 63.782 72.374 60.725 75.752Z" fill="#ffff"/>
</svg>
