<?xml version="1.0" encoding="utf-8"?>
<!-- Generator: Adobe Illustrator 18.1.1, SVG Export Plug-In . SVG Version: 6.00 Build 0)  -->
<svg version="1.1" id="иконка" xmlns="http://www.w3.org/2000/svg" xmlns:xlink="http://www.w3.org/1999/xlink" x="0px"
	 y="0px" width="60px" height="60px" viewBox="0 0 60 60" enable-background="new 0 0 60 60" xml:space="preserve">
<a
  xlink:href="http://">
<path fill-rule="evenodd" clip-rule="evenodd" fill="#68B200" d="M23.7,15.3l0.4,0.5l0.6-0.5l0.7-3.8l-1.1,0.9L23.7,15.3L23.7,15.3z
	 M5.7,0h48.6c1.6,0,3,0.6,4,1.7c1,1,1.7,2.5,1.7,4v48.6c0,1.6-0.6,3-1.7,4h0c-1,1-2.5,1.7-4,1.7H5.7c-1.6,0-3-0.6-4-1.7l0,0
	c-1-1-1.7-2.5-1.7-4V5.7c0-1.6,0.6-3,1.7-4v0C2.7,0.6,4.1,0,5.7,0L5.7,0z M54.3,2.9c0.8,0,1.5,0.3,2,0.8s0.8,1.2,0.8,2v48.6
	c0,0.8-0.3,1.5-0.8,2l0,0c-0.5,0.5-1.2,0.8-2,0.8H5.7c-0.8,0-1.5-0.3-2-0.8c-0.5-0.5-0.8-1.2-0.8-2V5.7c0-0.8,0.3-1.5,0.8-2l0,0
	c0.5-0.5,1.2-0.8,2-0.8H54.3L54.3,2.9z M14.4,6.8h31.3c1.4,0,2.6,1.2,2.6,2.6v41.3c0,1.4-1.2,2.6-2.6,2.6H14.4
	c-1.4,0-2.6-1.2-2.6-2.6V9.4C11.8,7.9,12.9,6.8,14.4,6.8L14.4,6.8z M15.2,10.3h29.6c0.8,0,1.4,0.6,1.4,1.4v8c0,0.8-0.6,1.4-1.4,1.4
	H15.2c-0.8,0-1.4-0.6-1.4-1.4v-8C13.8,10.9,14.4,10.3,15.2,10.3L15.2,10.3z M32.1,23.4c-0.8,0-1.4,0.6-1.4,1.4v9.7
	c0,0.8,0.6,1.4,1.4,1.4h12.6c0.8,0,1.4-0.6,1.4-1.4v-9.7c0-0.8-0.6-1.4-1.4-1.4H32.1L32.1,23.4z M32.1,37.4c-0.8,0-1.4,0.6-1.4,1.4
	v9.7c0,0.8,0.6,1.4,1.4,1.4h12.6c0.8,0,1.4-0.6,1.4-1.4v-9.7c0-0.8-0.6-1.4-1.4-1.4H32.1L32.1,37.4z M15.2,23.4
	c-0.8,0-1.4,0.6-1.4,1.4v9.7c0,0.8,0.6,1.4,1.4,1.4h12.6c0.8,0,1.4-0.6,1.4-1.4v-9.7c0-0.8-0.6-1.4-1.4-1.4H15.2L15.2,23.4z
	 M15.2,37.4c-0.8,0-1.4,0.6-1.4,1.4v9.7c0,0.8,0.6,1.4,1.4,1.4h12.6c0.8,0,1.4-0.6,1.4-1.4v-9.7c0-0.8-0.6-1.4-1.4-1.4H15.2
	L15.2,37.4z M34.5,44.4v1.5h7.9v-1.5H34.5L34.5,44.4z M34.5,41.1v1.5h7.9v-1.5H34.5L34.5,41.1z M23.7,47l1-1l-2.3-2.3l2.3-2.3l-1-1
	l-2.3,2.3l-2.3-2.3l-1,1l2.3,2.3L18.1,46l1,1l2.3-2.3L23.7,47L23.7,47z M20.7,33.6h1.5v-3.2h3.2v-1.5h-3.2v-3.2h-1.5v3.2h-3.2v1.5
	h3.2V33.6L20.7,33.6z M34.5,28.9v1.5h7.9v-1.5H34.5L34.5,28.9z M38,15.1l0.4,0.5l0.6-0.5l0.6-3.3l-0.4-0.5l-0.6,0.5L38,15.1L38,15.1
	z M42,15.1l0.4,0.5l0.6-0.5l0.6-3.3l-0.4-0.5l-0.6,0.5L42,15.1L42,15.1z M39.1,15.3l-0.6,0.5l0.4,0.5h2.7l0.6-0.5l-0.4-0.5H39.1
	L39.1,15.3z M41.7,16.4l-0.6,3.3l0.4,0.5l0.6-0.5l0.6-3.3l-0.4-0.5L41.7,16.4L41.7,16.4z M36.9,16.4l-0.4-0.5L36,16.4l-0.5,2.7
	l0.4,0.5l0.6-0.5L36.9,16.4L36.9,16.4z M35.1,20.2l0.6-0.5l-0.4-0.5h-2.8l-0.6,0.5l0.5,0.5H35.1L35.1,20.2z M35.8,16.2l0.6-0.5
	L36,15.3h-2.8l-0.6,0.5l0.5,0.5H35.8L35.8,16.2z M37.2,15.1l0.5-2.7L37.3,12l-0.6,0.5l-0.5,2.7l0.4,0.5L37.2,15.1L37.2,15.1z
	 M33.7,12.3h2.8l0.6-0.5l-0.4-0.5h-2.8l-0.6,0.5L33.7,12.3L33.7,12.3z M31.8,15.1l0.5-2.7L31.9,12l-0.6,0.5l-0.5,2.7l0.4,0.5
	L31.8,15.1L31.8,15.1z M31.4,11.3h-2.7l-0.6,0.5l0.4,0.5h2.7l0.6-0.5L31.4,11.3L31.4,11.3z M30.7,15.3H28l-0.6,0.5l0.4,0.5h2.7
	l0.6-0.5L30.7,15.3L30.7,15.3z M27.6,16.4l-0.4-0.5l-0.6,0.5L26,20l1.1-1L27.6,16.4L27.6,16.4z M27.3,19.2l-1.1,1h3.6l0.6-0.5
	L30,19.2H27.3L27.3,19.2z M23.6,16.3l0.6-0.5l0.4,0.5l-0.6,3.5l-0.6,0.5l-0.4-0.5L23.6,16.3z"/>
   </a>	
</svg>
